<?xml version="1.0" standalone="no"?>
<!DOCTYPE svg PUBLIC "-//W3C//DTD SVG 20010904//EN"
 "http://www.w3.org/TR/2001/REC-SVG-20010904/DTD/svg10.dtd">
<svg version="1.0" xmlns="http://www.w3.org/2000/svg"
 width="230.000000pt" height="219.000000pt" viewBox="0 0 230.000000 219.000000"
 preserveAspectRatio="xMidYMid meet">
<metadata>
Created by potrace 1.10, written by Peter Selinger 2001-2011
</metadata>
<g transform="translate(0.000000,219.000000) scale(0.100000,-0.100000)"
fill="#000000" stroke="none">
<path d="M976 2088 c-314 -54 -571 -100 -572 -101 -3 -2 -354 -956 -384 -1042
l-17 -50 371 -445 c352 -422 373 -445 401 -442 41 5 1118 192 1121 195 3 3
394 1069 396 1083 3 10 -720 886 -740 897 -4 3 -263 -40 -576 -95z m907 -352
c190 -228 351 -423 358 -434 10 -16 10 -29 -3 -69 -49 -145 -361 -980 -371
-990 -12 -12 -66 -23 -722 -139 -417 -74 -384 -70 -401 -46 -13 18 -269 327
-380 457 -219 259 -324 391 -318 405 3 8 89 240 190 515 101 275 190 505 197
513 8 7 225 49 503 98 269 47 507 89 529 93 22 5 47 9 57 10 10 1 148 -158
361 -413z"/>
<path d="M1025 1866 c-160 -32 -279 -92 -385 -193 -43 -41 -86 -92 -100 -120
-13 -26 -41 -74 -61 -106 -60 -92 -80 -164 -86 -303 -7 -152 11 -242 72 -369
198 -409 701 -558 1091 -324 126 76 245 214 307 355 47 108 60 184 54 334 -7
191 -34 265 -154 425 -77 103 -82 109 -155 163 -161 121 -392 175 -583 138z
m290 -41 c92 -19 234 -90 317 -159 110 -91 181 -201 230 -356 19 -64 23 -95
23 -210 -1 -121 -4 -143 -29 -215 -82 -238 -272 -419 -511 -486 -101 -28 -257
-31 -360 -5 -260 63 -471 272 -542 536 -26 98 -24 272 5 373 74 258 277 454
534 518 90 22 238 24 333 4z"/>
<path d="M1412 1646 c-204 -67 -277 -305 -141 -460 63 -72 126 -100 224 -100
68 -1 89 3 137 27 220 108 215 412 -8 516 -58 28 -155 35 -212 17z m200 -42
c85 -43 141 -116 154 -201 14 -98 -43 -206 -135 -257 -141 -76 -307 -24 -377
120 -53 109 -15 241 90 312 27 17 62 36 80 42 43 13 149 4 188 -16z"/>
<path d="M1293 1432 c-75 -59 -33 -172 64 -172 62 0 104 62 83 124 -20 61 -98
87 -147 48z m70 -28 c4 -4 -5 -20 -18 -36 -14 -16 -25 -34 -25 -39 0 -6 -4 -7
-10 -4 -5 3 -10 18 -10 32 0 35 43 67 63 47z m55 -70 c4 -27 -26 -40 -46 -20
-21 20 -8 48 20 44 14 -2 24 -11 26 -24z"/>
<path d="M733 1620 c-96 -20 -170 -77 -214 -166 -33 -68 -34 -180 -1 -242 117
-223 443 -213 545 17 89 202 -108 435 -330 391z m174 -52 c50 -23 108 -85 131
-137 26 -61 21 -148 -14 -211 -90 -167 -314 -190 -441 -47 -185 211 65 516
324 395z"/>
<path d="M588 1405 c-36 -20 -54 -76 -38 -116 17 -39 46 -59 88 -59 46 0 71
16 87 53 18 43 9 82 -27 112 -33 28 -70 31 -110 10z m40 -78 c-27 -42 -34 -45
-44 -15 -5 17 0 28 21 46 39 33 52 14 23 -31z m77 -27 c0 -18 -6 -26 -23 -28
-24 -4 -38 18 -28 44 3 9 15 14 28 12 17 -2 23 -10 23 -28z"/>
<path d="M1093 1169 c-33 -10 -77 -55 -67 -70 3 -5 -13 -16 -36 -25 -109 -44
-108 -194 2 -194 l35 0 -5 -69 c-4 -64 -3 -71 21 -95 29 -29 55 -33 95 -12 24
12 30 12 47 0 27 -20 68 -17 93 6 19 18 22 31 22 98 0 77 0 77 27 79 34 2 73
45 73 81 0 41 -34 88 -79 108 -25 11 -41 25 -43 38 -6 43 -116 76 -185 55z
m131 -55 c9 -8 16 -19 16 -24 0 -17 -38 -30 -85 -30 -72 0 -105 26 -73 58 18
18 123 15 142 -4z m-169 -74 c54 -28 148 -27 194 1 29 17 38 19 62 9 57 -24
78 -96 37 -124 -28 -20 -68 -20 -115 -1 -45 19 -120 19 -153 0 -31 -18 -112
-19 -128 -3 -16 16 -15 70 1 90 9 11 57 48 62 48 0 0 18 -9 40 -20z m95 -204
c0 -92 -11 -116 -54 -116 -36 0 -46 19 -46 92 l0 67 43 20 c23 11 45 20 50 20
4 1 7 -37 7 -83z m97 57 c19 -4 22 -13 25 -70 3 -74 -10 -103 -46 -103 -38 0
-46 19 -46 108 0 83 0 84 23 77 12 -3 32 -9 44 -12z"/>
</g>
</svg>
